<svg id="visual" viewBox="0 0 960 540" width="960" height="540" xmlns="http://www.w3.org/2000/svg" xmlns:xlink="http://www.w3.org/1999/xlink" version="1.1"><path d="M0 114L14.5 123C29 132 58 150 87.2 147.3C116.3 144.7 145.7 121.3 174.8 109.7C204 98 233 98 262 99.8C291 101.7 320 105.3 349 123.3C378 141.3 407 173.7 436.2 192.5C465.3 211.3 494.7 216.7 523.8 219.3C553 222 582 222 611 218.5C640 215 669 208 698 192.8C727 177.7 756 154.3 785.2 148C814.3 141.7 843.7 152.3 872.8 145C902 137.7 931 112.3 945.5 99.7L960 87L960 0L945.5 0C931 0 902 0 872.8 0C843.7 0 814.3 0 785.2 0C756 0 727 0 698 0C669 0 640 0 611 0C582 0 553 0 523.8 0C494.7 0 465.3 0 436.2 0C407 0 378 0 349 0C320 0 291 0 262 0C233 0 204 0 174.8 0C145.7 0 116.3 0 87.2 0C58 0 29 0 14.5 0L0 0Z" fill="#394659"></path><path d="M0 244L14.5 248.5C29 253 58 262 87.2 258.3C116.3 254.7 145.7 238.3 174.8 227.5C204 216.7 233 211.3 262 206.8C291 202.3 320 198.7 349 213.2C378 227.7 407 260.3 436.2 282.8C465.3 305.3 494.7 317.7 523.8 314.8C553 312 582 294 611 292.3C640 290.7 669 305.3 698 296.3C727 287.3 756 254.7 785.2 238.3C814.3 222 843.7 222 872.8 219.3C902 216.7 931 211.3 945.5 208.7L960 206L960 85L945.5 97.7C931 110.3 902 135.7 872.8 143C843.7 150.3 814.3 139.7 785.2 146C756 152.3 727 175.7 698 190.8C669 206 640 213 611 216.5C582 220 553 220 523.8 217.3C494.7 214.7 465.3 209.3 436.2 190.5C407 171.7 378 139.3 349 121.3C320 103.3 291 99.7 262 97.8C233 96 204 96 174.8 107.7C145.7 119.3 116.3 142.7 87.2 145.3C58 148 29 130 14.5 121L0 112Z" fill="#252f3d"></path><path d="M0 406L14.5 410.5C29 415 58 424 87.2 427.7C116.3 431.3 145.7 429.7 174.8 429.7C204 429.7 233 431.3 262 437.5C291 443.7 320 454.3 349 447.2C378 440 407 415 436.2 413.3C465.3 411.7 494.7 433.3 523.8 436C553 438.7 582 422.3 611 424C640 425.7 669 445.3 698 453.5C727 461.7 756 458.3 785.2 443.2C814.3 428 843.7 401 872.8 401.8C902 402.7 931 431.3 945.5 445.7L960 460L960 204L945.5 206.7C931 209.3 902 214.7 872.8 217.3C843.7 220 814.3 220 785.2 236.3C756 252.7 727 285.3 698 294.3C669 303.3 640 288.7 611 290.3C582 292 553 310 523.8 312.8C494.7 315.7 465.3 303.3 436.2 280.8C407 258.3 378 225.7 349 211.2C320 196.7 291 200.3 262 204.8C233 209.3 204 214.7 174.8 225.5C145.7 236.3 116.3 252.7 87.2 256.3C58 260 29 251 14.5 246.5L0 242Z" fill="#19212c"></path><path d="M0 541L14.5 541C29 541 58 541 87.2 541C116.3 541 145.7 541 174.8 541C204 541 233 541 262 541C291 541 320 541 349 541C378 541 407 541 436.2 541C465.3 541 494.7 541 523.8 541C553 541 582 541 611 541C640 541 669 541 698 541C727 541 756 541 785.2 541C814.3 541 843.7 541 872.8 541C902 541 931 541 945.5 541L960 541L960 458L945.5 443.7C931 429.3 902 400.7 872.8 399.8C843.7 399 814.3 426 785.2 441.2C756 456.3 727 459.7 698 451.5C669 443.3 640 423.7 611 422C582 420.3 553 436.7 523.8 434C494.7 431.3 465.3 409.7 436.2 411.3C407 413 378 438 349 445.2C320 452.3 291 441.7 262 435.5C233 429.3 204 427.7 174.8 427.7C145.7 427.7 116.3 429.3 87.2 425.7C58 422 29 413 14.5 408.5L0 404Z" fill="#161c24"></path></svg>