<svg id="visual" viewBox="0 0 960 540" width="960" height="540" xmlns="http://www.w3.org/2000/svg" xmlns:xlink="http://www.w3.org/1999/xlink" version="1.1"><path d="M0 33L14.5 36.7C29 40.3 58 47.7 87.2 48.7C116.3 49.7 145.7 44.3 174.8 47C204 49.7 233 60.3 262 63.8C291 67.3 320 63.7 349 64.7C378 65.7 407 71.3 436.2 69.7C465.3 68 494.7 59 523.8 51.7C553 44.3 582 38.7 611 35C640 31.3 669 29.7 698 33.3C727 37 756 46 785.2 47.8C814.3 49.7 843.7 44.3 872.8 47C902 49.7 931 60.3 945.5 65.7L960 71L960 0L945.5 0C931 0 902 0 872.8 0C843.7 0 814.3 0 785.2 0C756 0 727 0 698 0C669 0 640 0 611 0C582 0 553 0 523.8 0C494.7 0 465.3 0 436.2 0C407 0 378 0 349 0C320 0 291 0 262 0C233 0 204 0 174.8 0C145.7 0 116.3 0 87.2 0C58 0 29 0 14.5 0L0 0Z" fill="#3e4c5f"></path><path d="M0 125L14.5 128.7C29 132.3 58 139.7 87.2 134.3C116.3 129 145.7 111 174.8 109.2C204 107.3 233 121.7 262 138.7C291 155.7 320 175.3 349 181.7C378 188 407 181 436.2 170.3C465.3 159.7 494.7 145.3 523.8 137.2C553 129 582 127 611 119.7C640 112.3 669 99.7 698 103.3C727 107 756 127 785.2 139.7C814.3 152.3 843.7 157.7 872.8 152.2C902 146.7 931 130.3 945.5 122.2L960 114L960 69L945.5 63.7C931 58.3 902 47.7 872.8 45C843.7 42.3 814.3 47.7 785.2 45.8C756 44 727 35 698 31.3C669 27.7 640 29.3 611 33C582 36.7 553 42.3 523.8 49.7C494.7 57 465.3 66 436.2 67.7C407 69.3 378 63.7 349 62.7C320 61.7 291 65.3 262 61.8C233 58.3 204 47.7 174.8 45C145.7 42.3 116.3 47.7 87.2 46.7C58 45.7 29 38.3 14.5 34.7L0 31Z" fill="#313e4f"></path><path d="M0 190L14.5 192.7C29 195.3 58 200.7 87.2 196.2C116.3 191.7 145.7 177.3 174.8 177.3C204 177.3 233 191.7 262 204.3C291 217 320 228 349 229C378 230 407 221 436.2 211C465.3 201 494.7 190 523.8 185.5C553 181 582 183 611 181.2C640 179.3 669 173.7 698 178.2C727 182.7 756 197.3 785.2 201C814.3 204.7 843.7 197.3 872.8 188.3C902 179.3 931 168.7 945.5 163.3L960 158L960 112L945.5 120.2C931 128.3 902 144.7 872.8 150.2C843.7 155.7 814.3 150.3 785.2 137.7C756 125 727 105 698 101.3C669 97.7 640 110.3 611 117.7C582 125 553 127 523.8 135.2C494.7 143.3 465.3 157.7 436.2 168.3C407 179 378 186 349 179.7C320 173.3 291 153.7 262 136.7C233 119.7 204 105.3 174.8 107.2C145.7 109 116.3 127 87.2 132.3C58 137.7 29 130.3 14.5 126.7L0 123Z" fill="#25303f"></path><path d="M0 287L14.5 284.3C29 281.7 58 276.3 87.2 263.8C116.3 251.3 145.7 231.7 174.8 229C204 226.3 233 240.7 262 254.2C291 267.7 320 280.3 349 284.8C378 289.3 407 285.7 436.2 280.2C465.3 274.7 494.7 267.3 523.8 259.2C553 251 582 242 611 234C640 226 669 219 698 230.7C727 242.3 756 272.7 785.2 283.3C814.3 294 843.7 285 872.8 268C902 251 931 226 945.5 213.5L960 201L960 156L945.5 161.3C931 166.7 902 177.3 872.8 186.3C843.7 195.3 814.3 202.7 785.2 199C756 195.3 727 180.7 698 176.2C669 171.7 640 177.3 611 179.2C582 181 553 179 523.8 183.5C494.7 188 465.3 199 436.2 209C407 219 378 228 349 227C320 226 291 215 262 202.3C233 189.7 204 175.3 174.8 175.3C145.7 175.3 116.3 189.7 87.2 194.2C58 198.7 29 193.3 14.5 190.7L0 188Z" fill="#1e2734"></path><path d="M0 417L14.5 404.3C29 391.7 58 366.3 87.2 359.2C116.3 352 145.7 363 174.8 373C204 383 233 392 262 390.2C291 388.3 320 375.7 349 370.2C378 364.7 407 366.3 436.2 376.2C465.3 386 494.7 404 523.8 405C553 406 582 390 611 388.2C640 386.3 669 398.7 698 404.8C727 411 756 411 785.2 412.8C814.3 414.7 843.7 418.3 872.8 419.3C902 420.3 931 418.7 945.5 417.8L960 417L960 199L945.5 211.5C931 224 902 249 872.8 266C843.7 283 814.3 292 785.2 281.3C756 270.7 727 240.3 698 228.7C669 217 640 224 611 232C582 240 553 249 523.8 257.2C494.7 265.3 465.3 272.7 436.2 278.2C407 283.7 378 287.3 349 282.8C320 278.3 291 265.7 262 252.2C233 238.7 204 224.3 174.8 227C145.7 229.7 116.3 249.3 87.2 261.8C58 274.3 29 279.7 14.5 282.3L0 285Z" fill="#1b232f"></path><path d="M0 541L14.5 541C29 541 58 541 87.2 541C116.3 541 145.7 541 174.8 541C204 541 233 541 262 541C291 541 320 541 349 541C378 541 407 541 436.2 541C465.3 541 494.7 541 523.8 541C553 541 582 541 611 541C640 541 669 541 698 541C727 541 756 541 785.2 541C814.3 541 843.7 541 872.8 541C902 541 931 541 945.5 541L960 541L960 415L945.5 415.8C931 416.7 902 418.3 872.8 417.3C843.7 416.3 814.3 412.7 785.2 410.8C756 409 727 409 698 402.8C669 396.7 640 384.3 611 386.2C582 388 553 404 523.8 403C494.7 402 465.3 384 436.2 374.2C407 364.3 378 362.7 349 368.2C320 373.7 291 386.3 262 388.2C233 390 204 381 174.8 371C145.7 361 116.3 350 87.2 357.2C58 364.3 29 389.7 14.5 402.3L0 415Z" fill="#191f29"></path></svg>