<svg id="visual" viewBox="0 0 960 540" width="960" height="540" xmlns="http://www.w3.org/2000/svg" xmlns:xlink="http://www.w3.org/1999/xlink" version="1.1"><path d="M0 152L14.5 152C29 152 58 152 87.2 135C116.3 118 145.7 84 174.8 82.2C204 80.3 233 110.7 262 123.2C291 135.7 320 130.3 349 131.3C378 132.3 407 139.7 436.2 137.8C465.3 136 494.7 125 523.8 129.5C553 134 582 154 611 156.8C640 159.7 669 145.3 698 130.8C727 116.3 756 101.7 785.2 92.7C814.3 83.7 843.7 80.3 872.8 86.7C902 93 931 109 945.5 117L960 125L960 0L945.5 0C931 0 902 0 872.8 0C843.7 0 814.3 0 785.2 0C756 0 727 0 698 0C669 0 640 0 611 0C582 0 553 0 523.8 0C494.7 0 465.3 0 436.2 0C407 0 378 0 349 0C320 0 291 0 262 0C233 0 204 0 174.8 0C145.7 0 116.3 0 87.2 0C58 0 29 0 14.5 0L0 0Z" fill="#3e4c5f"></path><path d="M0 217L14.5 213.3C29 209.7 58 202.3 87.2 185.2C116.3 168 145.7 141 174.8 140.2C204 139.3 233 164.7 262 173.7C291 182.7 320 175.3 349 173.5C378 171.7 407 175.3 436.2 175.3C465.3 175.3 494.7 171.7 523.8 175.3C553 179 582 190 611 195.5C640 201 669 201 698 192C727 183 756 165 785.2 154.2C814.3 143.3 843.7 139.7 872.8 143.2C902 146.7 931 157.3 945.5 162.7L960 168L960 123L945.5 115C931 107 902 91 872.8 84.7C843.7 78.3 814.3 81.7 785.2 90.7C756 99.7 727 114.3 698 128.8C669 143.3 640 157.7 611 154.8C582 152 553 132 523.8 127.5C494.7 123 465.3 134 436.2 135.8C407 137.7 378 130.3 349 129.3C320 128.3 291 133.7 262 121.2C233 108.7 204 78.3 174.8 80.2C145.7 82 116.3 116 87.2 133C58 150 29 150 14.5 150L0 150Z" fill="#364355"></path><path d="M0 260L14.5 254.7C29 249.3 58 238.7 87.2 223.3C116.3 208 145.7 188 174.8 196C204 204 233 240 262 249C291 258 320 240 349 234.7C378 229.3 407 236.7 436.2 235C465.3 233.3 494.7 222.7 523.8 221.8C553 221 582 230 611 239C640 248 669 257 698 250.7C727 244.3 756 222.7 785.2 209.2C814.3 195.7 843.7 190.3 872.8 192.2C902 194 931 203 945.5 207.5L960 212L960 166L945.5 160.7C931 155.3 902 144.7 872.8 141.2C843.7 137.7 814.3 141.3 785.2 152.2C756 163 727 181 698 190C669 199 640 199 611 193.5C582 188 553 177 523.8 173.3C494.7 169.7 465.3 173.3 436.2 173.3C407 173.3 378 169.7 349 171.5C320 173.3 291 180.7 262 171.7C233 162.7 204 137.3 174.8 138.2C145.7 139 116.3 166 87.2 183.2C58 200.3 29 207.7 14.5 211.3L0 215Z" fill="#2e3a4b"></path><path d="M0 303L14.5 298.5C29 294 58 285 87.2 265.3C116.3 245.7 145.7 215.3 174.8 220.8C204 226.3 233 267.7 262 277.5C291 287.3 320 265.7 349 259.3C378 253 407 262 436.2 266.5C465.3 271 494.7 271 523.8 271C553 271 582 271 611 274.7C640 278.3 669 285.7 698 280.3C727 275 756 257 785.2 245.2C814.3 233.3 843.7 227.7 872.8 231.2C902 234.7 931 247.3 945.5 253.7L960 260L960 210L945.5 205.5C931 201 902 192 872.8 190.2C843.7 188.3 814.3 193.7 785.2 207.2C756 220.7 727 242.3 698 248.7C669 255 640 246 611 237C582 228 553 219 523.8 219.8C494.7 220.7 465.3 231.3 436.2 233C407 234.7 378 227.3 349 232.7C320 238 291 256 262 247C233 238 204 202 174.8 194C145.7 186 116.3 206 87.2 221.3C58 236.7 29 247.3 14.5 252.7L0 258Z" fill="#263141"></path><path d="M0 341L14.5 337.5C29 334 58 327 87.2 309C116.3 291 145.7 262 174.8 262.8C204 263.7 233 294.3 262 299.8C291 305.3 320 285.7 349 280.3C378 275 407 284 436.2 292C465.3 300 494.7 307 523.8 310.5C553 314 582 314 611 314C640 314 669 314 698 304.2C727 294.3 756 274.7 785.2 266.7C814.3 258.7 843.7 262.3 872.8 268.7C902 275 931 284 945.5 288.5L960 293L960 258L945.5 251.7C931 245.3 902 232.7 872.8 229.2C843.7 225.7 814.3 231.3 785.2 243.2C756 255 727 273 698 278.3C669 283.7 640 276.3 611 272.7C582 269 553 269 523.8 269C494.7 269 465.3 269 436.2 264.5C407 260 378 251 349 257.3C320 263.7 291 285.3 262 275.5C233 265.7 204 224.3 174.8 218.8C145.7 213.3 116.3 243.7 87.2 263.3C58 283 29 292 14.5 296.5L0 301Z" fill="#1f2937"></path><path d="M0 433L14.5 428.5C29 424 58 415 87.2 407.8C116.3 400.7 145.7 395.3 174.8 395.3C204 395.3 233 400.7 262 399.7C291 398.7 320 391.3 349 386.8C378 382.3 407 380.7 436.2 385.2C465.3 389.7 494.7 400.3 523.8 400.3C553 400.3 582 389.7 611 390.7C640 391.7 669 404.3 698 409.7C727 415 756 413 785.2 415.7C814.3 418.3 843.7 425.7 872.8 427.5C902 429.3 931 425.7 945.5 423.8L960 422L960 291L945.5 286.5C931 282 902 273 872.8 266.7C843.7 260.3 814.3 256.7 785.2 264.7C756 272.7 727 292.3 698 302.2C669 312 640 312 611 312C582 312 553 312 523.8 308.5C494.7 305 465.3 298 436.2 290C407 282 378 273 349 278.3C320 283.7 291 303.3 262 297.8C233 292.3 204 261.7 174.8 260.8C145.7 260 116.3 289 87.2 307C58 325 29 332 14.5 335.5L0 339Z" fill="#1e2633"></path><path d="M0 476L14.5 476C29 476 58 476 87.2 476C116.3 476 145.7 476 174.8 477C204 478 233 480 262 478.2C291 476.3 320 470.7 349 470.7C378 470.7 407 476.3 436.2 479.2C465.3 482 494.7 482 523.8 481C553 480 582 478 611 473.5C640 469 669 462 698 461.2C727 460.3 756 465.7 785.2 467.3C814.3 469 843.7 467 872.8 469.7C902 472.3 931 479.7 945.5 483.3L960 487L960 420L945.5 421.8C931 423.7 902 427.3 872.8 425.5C843.7 423.7 814.3 416.3 785.2 413.7C756 411 727 413 698 407.7C669 402.3 640 389.7 611 388.7C582 387.7 553 398.3 523.8 398.3C494.7 398.3 465.3 387.7 436.2 383.2C407 378.7 378 380.3 349 384.8C320 389.3 291 396.7 262 397.7C233 398.7 204 393.3 174.8 393.3C145.7 393.3 116.3 398.7 87.2 405.8C58 413 29 422 14.5 426.5L0 431Z" fill="#1c2430"></path><path d="M0 509L14.5 509.8C29 510.7 58 512.3 87.2 513.2C116.3 514 145.7 514 174.8 511.3C204 508.7 233 503.3 262 503.3C291 503.3 320 508.7 349 508.7C378 508.7 407 503.3 436.2 500.7C465.3 498 494.7 498 523.8 500.7C553 503.3 582 508.7 611 509.5C640 510.3 669 506.7 698 508.5C727 510.3 756 517.7 785.2 520.3C814.3 523 843.7 521 872.8 517.3C902 513.7 931 508.3 945.5 505.7L960 503L960 485L945.5 481.3C931 477.7 902 470.3 872.8 467.7C843.7 465 814.3 467 785.2 465.3C756 463.7 727 458.3 698 459.2C669 460 640 467 611 471.5C582 476 553 478 523.8 479C494.7 480 465.3 480 436.2 477.2C407 474.3 378 468.7 349 468.7C320 468.7 291 474.3 262 476.2C233 478 204 476 174.8 475C145.7 474 116.3 474 87.2 474C58 474 29 474 14.5 474L0 474Z" fill="#1b212c"></path><path d="M0 541L14.5 541C29 541 58 541 87.2 541C116.3 541 145.7 541 174.8 541C204 541 233 541 262 541C291 541 320 541 349 541C378 541 407 541 436.2 541C465.3 541 494.7 541 523.8 541C553 541 582 541 611 541C640 541 669 541 698 541C727 541 756 541 785.2 541C814.3 541 843.7 541 872.8 541C902 541 931 541 945.5 541L960 541L960 501L945.5 503.7C931 506.3 902 511.7 872.8 515.3C843.7 519 814.3 521 785.2 518.3C756 515.7 727 508.3 698 506.5C669 504.7 640 508.3 611 507.5C582 506.7 553 501.3 523.8 498.7C494.7 496 465.3 496 436.2 498.7C407 501.3 378 506.7 349 506.7C320 506.7 291 501.3 262 501.3C233 501.3 204 506.7 174.8 509.3C145.7 512 116.3 512 87.2 511.2C58 510.3 29 508.7 14.5 507.8L0 507Z" fill="#191f29"></path></svg>