<svg id="visual" viewBox="0 0 960 540" width="960" height="540" xmlns="http://www.w3.org/2000/svg" xmlns:xlink="http://www.w3.org/1999/xlink" version="1.1"><rect x="0" y="0" width="960" height="540" fill="#191F29"></rect><path d="M508 540L521 527.2C534 514.3 560 488.7 566.2 463C572.3 437.3 558.7 411.7 542.7 386C526.7 360.3 508.3 334.7 516.5 308.8C524.7 283 559.3 257 553.3 231.2C547.3 205.3 500.7 179.7 498.7 154C496.7 128.3 539.3 102.7 555.5 77C571.7 51.3 561.3 25.7 556.2 12.8L551 0L960 0L960 12.8C960 25.7 960 51.3 960 77C960 102.7 960 128.3 960 154C960 179.7 960 205.3 960 231.2C960 257 960 283 960 308.8C960 334.7 960 360.3 960 386C960 411.7 960 437.3 960 463C960 488.7 960 514.3 960 527.2L960 540Z" fill="#097fbe" stroke-linecap="round" stroke-linejoin="miter"></path></svg>