<svg id="visual" viewBox="0 0 960 540" width="960" height="540" xmlns="http://www.w3.org/2000/svg" xmlns:xlink="http://www.w3.org/1999/xlink" version="1.1"><rect x="0" y="0" width="960" height="540" fill="#097fbe"></rect><path d="M446 540L461.8 530C477.7 520 509.3 500 530.3 480C551.3 460 561.7 440 563 420C564.3 400 556.7 380 546.2 360C535.7 340 522.3 320 527.2 300C532 280 555 260 547.5 240C540 220 502 200 483.2 180C464.3 160 464.7 140 478.8 120C493 100 521 80 530.3 60C539.7 40 530.3 20 525.7 10L521 0L960 0L960 10C960 20 960 40 960 60C960 80 960 100 960 120C960 140 960 160 960 180C960 200 960 220 960 240C960 260 960 280 960 300C960 320 960 340 960 360C960 380 960 400 960 420C960 440 960 460 960 480C960 500 960 520 960 530L960 540Z" fill="#dadada" stroke-linecap="round" stroke-linejoin="miter"></path></svg>