<svg id="visual" viewBox="0 0 960 540" width="960" height="540" xmlns="http://www.w3.org/2000/svg" xmlns:xlink="http://www.w3.org/1999/xlink" version="1.1"><rect x="0" y="0" width="960" height="540" fill="#191F29"></rect><path d="M659 540L667.7 527.2C676.3 514.3 693.7 488.7 697.7 463C701.7 437.3 692.3 411.7 681.7 386C671 360.3 659 334.7 664.5 308.8C670 283 693 257 689 231.2C685 205.3 654 179.7 652.7 154C651.3 128.3 679.7 102.7 690.3 77C701 51.3 694 25.7 690.5 12.8L687 0L960 0L960 12.8C960 25.7 960 51.3 960 77C960 102.7 960 128.3 960 154C960 179.7 960 205.3 960 231.2C960 257 960 283 960 308.8C960 334.7 960 360.3 960 386C960 411.7 960 437.3 960 463C960 488.7 960 514.3 960 527.2L960 540Z" fill="#0369A1" stroke-linecap="round" stroke-linejoin="miter"></path></svg>